<svg width="83" height="93" viewBox="0 0 83 93" fill="none" xmlns="http://www.w3.org/2000/svg">
    <g filter="url(#filter0_d_1515_4201)">
        <path d="M41.4985 73.0001L69.2371 55.9251V34.9341L69.824 34.5752V25.8643L41.4985 43.2821V73.0001Z" fill="#EF2E79" />
        <g opacity="0.45">
            <path d="M41.5027 73.0001L69.2412 55.9251V34.9341L69.8282 34.5752V25.8643L41.5027 43.2821V73.0001Z" fill="white" />
        </g>
        <path opacity="0.15" d="M41.4985 51.9885L52.1206 45.4593L69.2371 34.9336V36.1878L41.4985 53.2387V51.9885Z" fill="black" />
        <path d="M41.4975 73.0001L13.9104 56.0501V35.0269L13.172 34.5752V25.8643L41.4975 43.2821V73.0001Z" fill="#EF2E79" />
        <path opacity="0.3" d="M41.4975 73.0001L13.9104 56.0501V35.0269L13.172 34.5752V25.8643L41.4975 43.2821V73.0001Z" fill="white" />
        <path opacity="0.1" d="M13.9087 35.0283L41.4995 51.9905V53.2406L13.9087 36.2946V35.0283Z" fill="black" />
        <path d="M13.172 25.865L41.4975 8.45117L69.823 25.865L41.4975 43.2828L13.172 25.865Z" fill="#EF2E79" />
        <g opacity="0.6">
            <path d="M13.172 25.864L41.4975 8.4502L69.823 25.864L41.4975 43.2819L13.172 25.864Z" fill="white" />
        </g>
        <path d="M29.9962 65.9309V36.2089L25.3951 33.3818V63.1039L29.9962 65.9309Z" fill="#EBEBEB" />
        <path d="M29.9962 65.9309V36.2089L25.3951 33.3818V63.1039L29.9962 65.9309Z" fill="#EF2E79" />
        <path opacity="0.4" d="M29.9962 65.9309V36.2089L25.3951 33.3818V63.1039L29.9962 65.9309Z" fill="black" />
        <path d="M53.0042 65.9309V36.2089L57.6052 33.3818V63.1039L53.0042 65.9309Z" fill="#EF2E79" />
        <path opacity="0.15" d="M53.0042 65.9309V36.2089L57.6052 33.3818V63.1039L53.0042 65.9309Z" fill="black" />
        <path d="M25.3951 33.3817L53.7206 15.9639L58.3216 18.7949L29.9962 36.2087L25.3951 33.3817Z" fill="#EF2E79" />
        <path opacity="0.25" d="M41.1238 29.37L36.5228 26.5389L41.1238 23.7119L45.7248 26.5389L41.1238 29.37Z" fill="black" />
        <path d="M53.0018 36.2087L24.6763 18.7949L29.2773 15.9639L57.6028 33.3817L53.0018 36.2087Z" fill="#EF2E79" />
        <path d="M40.3904 28.5523L46.9037 39.9652V59.8512L50.9329 53.7858V37.5052L41.3333 26.4512L40.3904 28.5523Z" fill="#EF2E79" />
        <path d="M41.5081 27.353L60.2718 27.9701L63.5096 23.3242L41.4664 25.4374L41.5081 27.353Z" fill="#EF2E79" />
        <path d="M23.3118 18.3406C23.3118 18.3406 24.4478 23.18 29.7229 25.0472C34.9979 26.9144 41.1099 27.358 41.1099 27.358L29.1246 12.126L23.3118 18.3406Z" fill="#EF2E79" />
        <path opacity="0.4" d="M23.3118 18.3406C23.3118 18.3406 24.4478 23.18 29.7229 25.0472C34.9979 26.9144 41.1099 27.358 41.1099 27.358L29.1246 12.126L23.3118 18.3406Z" fill="black" />
        <path d="M41.1099 27.358C41.1099 27.358 41.2386 22.5872 38.9249 18.9818C36.6111 15.3764 29.1246 12.126 29.1246 12.126C26.9426 13.921 24.9887 16.0099 23.3118 18.3406C23.3118 18.3406 33.2636 18.2559 40.1026 27.1927L41.1099 27.358Z" fill="#EF2E79" />
        <path opacity="0.1" d="M41.1099 27.358C41.1099 27.358 41.2386 22.5872 38.9249 18.9818C36.6111 15.3764 29.1246 12.126 29.1246 12.126C26.9426 13.921 24.9887 16.0099 23.3118 18.3406C23.3118 18.3406 33.2636 18.2559 40.1026 27.1927L41.1099 27.358Z" fill="white" />
        <path opacity="0.3" d="M29.5573 19.5663C31.4141 20.2088 33.1876 21.0977 34.8361 22.2118L38.4828 18.3766C37.2672 16.8643 35.2564 15.4528 33.4047 14.3438L29.5573 19.5663Z" fill="white" />
        <path d="M41.1128 27.3585C40.0038 29.5086 38.2791 31.2253 36.1899 32.2584C32.5924 34.1176 26.5713 34.0208 26.5713 34.0208L25.9957 25.9551C26.6871 27.0731 27.6289 27.9903 28.7363 28.624C29.8436 29.2576 31.0816 29.5878 32.3387 29.5846C35.042 29.6047 37.6598 28.577 39.7041 26.6931L41.1128 27.3585Z" fill="#EF2E79" />
        <path opacity="0.4" d="M41.1128 27.3585C40.0038 29.5086 38.2791 31.2253 36.1899 32.2584C32.5924 34.1176 26.5713 34.0208 26.5713 34.0208L25.9957 25.9551C26.6871 27.0731 27.6289 27.9903 28.7363 28.624C29.8436 29.2576 31.0816 29.5878 32.3387 29.5846C35.042 29.6047 37.6598 28.577 39.7041 26.6931L41.1128 27.3585Z" fill="black" />
        <path d="M41.1148 27.3568C37.3469 23.2675 33.8214 22.8723 30.6064 23.6708C27.0468 24.558 25.994 25.9413 25.994 25.9413L26.5696 34.007C26.5696 34.007 28.463 30.0629 33.6056 28.2884C38.7481 26.514 41.1148 27.3568 41.1148 27.3568Z" fill="#EF2E79" />
        <path opacity="0.1" d="M41.1148 27.3568C37.3469 23.2675 33.8214 22.8723 30.6064 23.6708C27.0468 24.558 25.994 25.9413 25.994 25.9413L26.5696 34.007C26.5696 34.007 28.463 30.0629 33.6056 28.2884C38.7481 26.514 41.1148 27.3568 41.1148 27.3568Z" fill="white" />
        <path opacity="0.3" d="M27.7556 24.697C28.6304 26.0359 30.0277 28.2257 30.9025 29.609C31.7556 29.071 32.6609 28.6329 33.6025 28.3023C34.4945 27.9958 35.4023 27.7441 36.3214 27.5482L33.0496 23.3379C32.2252 23.3553 31.405 23.4676 30.6033 23.6726C29.6231 23.9073 28.6687 24.2506 27.7556 24.697Z" fill="white" />
        <path d="M40.9011 26.4585C40.9011 26.4585 46.2027 25.6519 49.8645 21.4658C53.5264 17.2797 54.3216 11.4361 54.3216 11.4361L47.6492 7C48.2038 8.81273 48.3842 10.7316 48.1784 12.6255C47.9725 14.5193 47.3851 16.3435 46.4564 17.9734C44.082 22.2885 40.7761 23.1717 40.7761 23.1717L40.9011 26.4585Z" fill="#EF2E79" />
        <path opacity="0.4" d="M40.9011 26.4585C40.9011 26.4585 46.2027 25.6519 49.8645 21.4658C53.5264 17.2797 54.3216 11.4361 54.3216 11.4361L47.6492 7C48.2038 8.81273 48.3842 10.7316 48.1784 12.6255C47.9725 14.5193 47.3851 16.3435 46.4564 17.9734C44.082 22.2885 40.7761 23.1717 40.7761 23.1717L40.9011 26.4585Z" fill="black" />
        <path d="M40.8998 26.4585L41.8768 26.2447C42.4361 22.1633 44.2783 18.4043 47.1026 15.5819C51.9649 10.8393 54.3203 11.4361 54.3203 11.4361C52.3663 9.34712 50.0564 8.0566 47.6479 7C47.6479 7 43.5127 9.57296 41.6837 13.2146C39.4911 17.5741 40.2106 24.0347 40.8998 26.4585Z" fill="#EF2E79" />
        <path opacity="0.1" d="M40.8998 26.4585L41.8768 26.2447C42.4361 22.1633 44.2783 18.4043 47.1026 15.5819C51.9649 10.8393 54.3203 11.4361 54.3203 11.4361C52.3663 9.34712 50.0564 8.0566 47.6479 7C47.6479 7 43.5127 9.57296 41.6837 13.2146C39.4911 17.5741 40.2106 24.0347 40.8998 26.4585Z" fill="white" />
        <g opacity="0.3">
            <path d="M50.7473 12.6461L45.1163 8.95605C44.8474 9.19399 44.5786 9.44403 44.3021 9.71826L49.8006 13.2873C50.1338 13.0494 50.4519 12.8235 50.7473 12.6461Z" fill="white" />
            <path d="M48.9607 13.9221L43.5152 10.5547C42.9957 11.1386 42.5256 11.7702 42.1103 12.4421L42.0724 12.4985C41.9323 12.7284 41.7998 12.9663 41.6937 13.2043C41.6256 13.3454 41.5801 13.5067 41.5157 13.6519L46.0599 16.7048C46.3818 16.3257 46.7264 15.9506 47.1013 15.5836C47.7716 14.9303 48.3851 14.3899 48.9607 13.9221Z" fill="white" />
        </g>
        <path d="M41.0674 27.3497C41.0674 27.3497 42.7791 29.1685 46.7969 30.0961C50.8147 31.0236 55.8361 30.213 57.9302 27.5917L57.2637 20.0986C57.2637 20.0986 54.0525 25.0187 49.2015 26.0027C45.5056 26.7488 41.0182 25.3333 41.0182 25.3333L41.0674 27.3497Z" fill="#EF2E79" />
        <path opacity="0.4" d="M41.0674 27.3497C41.0674 27.3497 42.7791 29.1685 46.7969 30.0961C50.8147 31.0236 55.8361 30.213 57.9302 27.5917L57.2637 20.0986C57.2637 20.0986 54.0525 25.0187 49.2015 26.0027C45.5056 26.7488 41.0182 25.3333 41.0182 25.3333L41.0674 27.3497Z" fill="black" />
        <path d="M40.781 25.6331C40.781 25.6331 44.5186 21.1969 48.6652 20.3904C54.2811 19.2894 57.2764 20.1 57.2764 20.1C58.3519 22.7738 58.5412 25.2661 57.9429 27.593C57.9429 27.593 55.4247 24.883 49.7066 24.8507C45.1851 24.8265 41.0802 27.3511 41.0802 27.3511L40.781 25.6331Z" fill="#EF2E79" />
        <path opacity="0.1" d="M40.781 25.6331C40.781 25.6331 44.5186 21.1969 48.6652 20.3904C54.2811 19.2894 57.2764 20.1 57.2764 20.1C58.3519 22.7738 58.5412 25.2661 57.9429 27.593C57.9429 27.593 55.4247 24.883 49.7066 24.8507C45.1851 24.8265 41.0802 27.3511 41.0802 27.3511L40.781 25.6331Z" fill="white" />
        <path opacity="0.3" d="M56.724 26.6767C55.4784 25.9391 54.1254 25.4293 52.7213 25.1685L51.8352 19.9258C53.2327 19.7838 54.6393 19.773 56.0386 19.8935C56.684 22.0845 56.9169 24.3897 56.724 26.6767Z" fill="white" />
        <path opacity="0.15" d="M50.9338 37.5049L46.9047 39.9649V59.8509L50.9338 53.7855V37.5049Z" fill="black" />
    </g>
    <defs>
        <filter id="filter0_d_1515_4201" x="0.00418854" y="0.416096" width="82.9917" height="92.3356" filterUnits="userSpaceOnUse" color-interpolation-filters="sRGB">
            <feFlood flood-opacity="0" result="BackgroundImageFix" />
            <feColorMatrix in="SourceAlpha" type="matrix" values="0 0 0 0 0 0 0 0 0 0 0 0 0 0 0 0 0 0 127 0" result="hardAlpha" />
            <feOffset dy="6.5839" />
            <feGaussianBlur stdDeviation="6.5839" />
            <feColorMatrix type="matrix" values="0 0 0 0 0 0 0 0 0 0 0 0 0 0 0 0 0 0 0.15 0" />
            <feBlend mode="normal" in2="BackgroundImageFix" result="effect1_dropShadow_1515_4201" />
            <feBlend mode="normal" in="SourceGraphic" in2="effect1_dropShadow_1515_4201" result="shape" />
        </filter>
    </defs>
</svg>