<svg width="114" height="81" viewBox="0 0 114 81" fill="none" xmlns="http://www.w3.org/2000/svg">
<g style="mix-blend-mode:luminosity">
<mask id="mask0_2686_38833" style="mask-type:luminance" maskUnits="userSpaceOnUse" x="0" y="30" width="114" height="22">
<path d="M114 30.0488H0V51.8547H114V30.0488Z" fill="white"/>
</mask>
<g mask="url(#mask0_2686_38833)">
<path d="M51.9698 44.3438C57.2982 44.3438 60.0331 42.6962 60.0331 39.1528C60.0331 36.0939 57.7777 34.0587 52.8794 34.0587C46.9425 34.0587 44.5701 36.6694 44.0293 41.3455C43.1627 41.291 42.2163 41.2728 40.9255 41.2668C40.9255 41.0123 40.9318 40.7579 40.9318 40.4974C40.9318 35.7548 38.9405 34.0406 33.6305 34.0406C31.0368 34.0406 28.7506 34.4222 27.3554 34.9794L27.5645 38.7651C28.7814 38.1291 30.5944 37.5173 32.3152 37.5173C34.7429 37.5173 35.4803 38.5047 35.4803 40.873L35.4742 41.2243C35.3083 41.2183 34.8781 41.2183 34.6445 41.2183C28.597 41.2183 25.7944 43.0233 25.7944 46.3669C25.7944 49.8135 27.5337 51.8427 32.4934 51.8427C35.1054 51.8427 37.6867 51.4792 41.0117 51.4792C40.7658 50.0982 40.7597 48.1113 40.7597 46.7485C40.7597 46.0276 40.7966 45.1676 40.8334 44.1923C42.2531 44.2045 43.2979 44.2408 43.9863 44.2711C44.5025 49.8073 47.4157 51.8547 53.4816 51.8547C55.7249 51.8547 57.9927 51.4792 59.1789 50.934L58.9699 47.1483C57.7899 47.8206 56.1489 48.3718 54.3482 48.3718C51.3674 48.3718 49.7511 46.8393 49.7511 44.4165V44.3014C50.2857 44.3256 51.349 44.3438 51.9698 44.3438ZM33.7841 48.5354C31.9403 48.5354 31.1536 47.9297 31.1536 46.4093C31.1536 44.9434 32.1554 44.1136 34.6753 44.1136C34.9087 44.1136 35.1915 44.1076 35.3943 44.1257C35.382 45.5431 35.3513 47.1968 35.4311 48.3476C34.9949 48.4627 34.3495 48.5354 33.7841 48.5354ZM49.7265 41.4182V41.3334C49.7265 38.959 50.4885 37.2145 52.7011 37.2145C53.9548 37.2145 54.76 37.8626 54.76 39.0377C54.76 40.6913 53.6414 41.4606 51.3182 41.4606C50.759 41.4606 50.1628 41.4545 49.7265 41.4182ZM70.9298 48.063C69.1476 48.063 68.6252 47.3664 68.6252 44.8163V38.232H72.1406V34.5736H68.6804C68.6804 33.2773 68.7849 31.3632 68.8956 30.0488H65.6382C65.2079 33.247 64.2677 34.8946 61.3053 35.3792C61.2931 36.2393 61.3423 37.4143 61.3053 38.232H63.2782C63.2474 40.0492 63.1921 43.3686 63.1921 46.3911C63.1921 50.2496 65.2203 51.8305 69.0308 51.8305C70.8867 51.8305 72.2512 51.564 72.706 51.4367L72.4724 47.6752C72.1406 47.8994 71.483 48.063 70.9298 48.063ZM108.014 40.4974C108.014 35.7548 106.023 34.0406 100.719 34.0406C98.1192 34.0406 95.8391 34.4222 94.4439 34.9794L94.6529 38.7651C95.8698 38.1291 97.6767 37.5173 99.4037 37.5173C101.831 37.5173 102.569 38.5047 102.569 40.873V41.2243C102.397 41.2183 101.973 41.2183 101.739 41.2183C95.6854 41.2183 92.889 43.0233 92.889 46.3669C92.889 49.8135 94.6283 51.8427 99.5881 51.8427C102.2 51.8427 104.781 51.4792 108.1 51.4792C107.86 50.0982 107.854 48.1113 107.854 46.7485C107.848 45.2039 108.014 43.0355 108.014 40.4974ZM100.873 48.5354C99.0226 48.5354 98.2421 47.9297 98.2421 46.4093C98.2421 44.9434 99.2438 44.1136 101.764 44.1136C101.991 44.1136 102.274 44.1076 102.477 44.1257C102.47 45.5431 102.434 47.1968 102.52 48.3476C102.083 48.4627 101.432 48.5354 100.873 48.5354ZM90.6704 43.5927C90.6704 42.1632 90.7011 40.2612 90.7011 40.2612C90.7011 35.9788 88.7959 34.0587 83.4059 34.0587C80.3821 34.0587 78.225 34.5796 74.8509 34.5796C75.0414 37.5839 75.0476 41.297 75.0353 43.5988C75.0476 45.9368 74.9553 50.1285 74.8509 51.4792H80.6404C80.5051 50.1223 80.3945 46.2275 80.4068 43.5988C80.4068 42.1027 80.4252 40.2915 80.4867 37.8626C81.0644 37.6688 81.7957 37.5234 82.5886 37.5234C84.6167 37.5234 85.2681 38.4622 85.2681 41.0366C85.2681 41.0366 85.2988 42.6539 85.2988 43.6048C85.2988 45.9429 85.219 50.1345 85.1145 51.4852H90.9039C90.7687 50.1163 90.6519 46.2215 90.6704 43.5927ZM18.9603 33.2895C18.4194 32.7564 17.7126 32.4899 17.0119 32.4899C16.3052 32.4899 15.5922 32.7564 15.0514 33.2955L11.8433 36.4634L8.62898 33.2955C8.082 32.7503 7.37522 32.4838 6.66844 32.4838C5.96167 32.4838 5.2549 32.7503 4.71406 33.2833L0.805271 37.1358C-0.27026 38.1957 -0.270259 39.9221 0.811416 40.9881L11.8371 51.8547L22.8629 40.9881C23.9446 39.9281 23.9383 38.2019 22.8629 37.1358L18.9603 33.2895ZM112.611 35.0278C112.611 34.4524 112.255 34.2101 111.56 34.2101H110.466V37.0449H110.94V35.8334H111.382L112.126 37.0449H112.66L111.855 35.7971C112.292 35.7548 112.611 35.5427 112.611 35.0278ZM110.94 35.4398V34.6099H111.511C111.794 34.6099 112.138 34.6522 112.138 34.9915C112.138 35.4033 111.825 35.4336 111.474 35.4336H110.94V35.4398ZM111.456 33.023C110.079 33.023 108.899 34.0466 108.899 35.585C108.899 37.0449 109.962 38.1473 111.456 38.1473C112.82 38.1473 114 37.1297 114 35.585C114 34.0406 112.82 33.023 111.456 33.023ZM111.456 37.699C110.22 37.699 109.452 36.7481 109.452 35.585C109.452 34.3373 110.325 33.4711 111.456 33.4711C112.568 33.4711 113.441 34.3434 113.441 35.585C113.441 36.839 112.568 37.699 111.456 37.699Z" fill="#7D3F98"/>
</g>
</g>
</svg>
